<svg width="36" height="36" viewBox="0 0 36 36" fill="none" xmlns="http://www.w3.org/2000/svg">
<path d="M13.5613 3.75759C12.3369 3.45456 10.8062 3.15153 9.58176 3.15153C8.35727 3.15153 6.82665 3.45456 5.60216 3.75759C4.53073 3.9091 3.76543 4.81819 3.61237 5.8788C3.45931 7.09092 3.00012 9.51516 3.00012 11.1818C3.00012 12.8485 3.30624 14.9697 3.45931 16.4849C3.61237 17.5455 4.37767 18.4546 5.4491 18.6061C6.52053 18.9091 8.2042 19.0606 9.42869 19.0606C10.6532 19.0606 12.1838 18.7576 13.4083 18.6061C14.4797 18.4546 15.245 17.5455 15.3981 16.4849C15.7042 14.9697 15.8573 12.8485 15.8573 11.1818C15.8573 9.51516 15.5511 7.09092 15.3981 5.8788C15.3981 4.81819 14.6328 3.9091 13.5613 3.75759Z" fill="#1E1E1E"/>
<path d="M30.3981 17.3937C29.3267 17.0907 27.643 16.9392 26.4185 16.9392C25.194 16.9392 23.6634 17.2422 22.4389 17.3937C21.3675 17.5452 20.6022 18.4543 20.4491 19.5149C20.143 21.0301 19.9899 23.1513 19.9899 24.818C19.9899 26.4846 20.2961 28.6059 20.4491 30.121C20.6022 31.1816 21.3675 32.0907 22.4389 32.2422C23.5103 32.5452 25.194 32.6968 26.4185 32.6968C27.643 32.6968 29.1736 32.3937 30.3981 32.2422C31.4695 32.0907 32.2348 31.1816 32.3879 30.121C32.694 28.6059 32.8471 26.4846 32.8471 24.818C32.8471 23.1513 32.694 21.0301 32.3879 19.5149C32.2348 18.4543 31.4695 17.5452 30.3981 17.3937Z" fill="#1E1E1E"/>
<path d="M13.7144 23.4543C12.4899 23.1513 10.9593 22.9998 9.58176 22.9998C8.2042 22.9998 6.67359 23.3028 5.4491 23.4543C4.53073 23.6059 3.76543 24.3634 3.45931 25.2725C3.15318 26.3331 3.00012 27.2422 3.00012 27.9998C3.00012 28.7574 3.15318 29.5149 3.45931 30.7271C3.76543 31.6362 4.53073 32.2422 5.4491 32.5452C6.67359 32.8483 8.2042 32.9998 9.58176 32.9998C10.9593 32.9998 12.4899 32.6968 13.7144 32.5452C14.6328 32.3937 15.3981 31.6362 15.7042 30.7271C16.0103 29.6665 16.1634 28.7574 16.1634 27.9998C16.1634 27.2422 16.0103 26.4846 15.7042 25.2725C15.3981 24.2119 14.6328 23.6059 13.7144 23.4543Z" fill="#1E1E1E"/>
<path d="M22.2858 12.5453C23.5103 12.8483 25.0409 12.9999 26.4185 12.9999C27.796 12.9999 29.3267 12.6968 30.5511 12.5453C31.4695 12.3938 32.2348 11.6362 32.5409 10.7271C32.8471 9.66653 33.0001 8.75744 33.0001 7.99986C33.0001 7.24229 32.8471 6.48471 32.5409 5.27259C32.2348 4.3635 31.4695 3.75744 30.5511 3.45441C29.3267 3.15138 27.796 2.99986 26.4185 2.99986C25.0409 2.99986 23.5103 3.30289 22.2858 3.45441C21.3675 3.60592 20.6022 4.3635 20.296 5.27259C19.9899 6.3332 19.8369 7.24229 19.8369 7.99986C19.8369 8.75744 19.9899 9.51501 20.296 10.7271C20.6022 11.7877 21.3675 12.3938 22.2858 12.5453Z" fill="#1E1E1E"/>
</svg>
